<?xml version="1.0" ?>
<!-- Uploaded to: SVG Repo, www.svgrepo.com, Generator: SVG Repo Mixer Tools -->
<svg fill="#000000" width="800px" height="800px" viewBox="0 0 64 64" xmlns="http://www.w3.org/2000/svg">
<title/>
<g id="Handphone">
<path d="M40.94,61H23.06A10.07,10.07,0,0,1,13,50.94V13.06A10.07,10.07,0,0,1,23.06,3H40.94A10.07,10.07,0,0,1,51,13.06V50.94A10.07,10.07,0,0,1,40.94,61ZM23.06,5A8.07,8.07,0,0,0,15,13.06V50.94A8.07,8.07,0,0,0,23.06,59H40.94A8.07,8.07,0,0,0,49,50.94V13.06A8.07,8.07,0,0,0,40.94,5Z"/>
<path d="M41.73,53H22.27A5.28,5.28,0,0,1,17,47.73V12.27A5.28,5.28,0,0,1,22.27,7H41.73A5.28,5.28,0,0,1,47,12.27V47.73A5.28,5.28,0,0,1,41.73,53ZM22.27,9A3.28,3.28,0,0,0,19,12.27V47.73A3.28,3.28,0,0,0,22.27,51H41.73A3.28,3.28,0,0,0,45,47.73V12.27A3.28,3.28,0,0,0,41.73,9Z"/>
<path d="M32,59a3,3,0,1,1,3-3A3,3,0,0,1,32,59Zm0-4a1,1,0,1,0,1,1A1,1,0,0,0,32,55Z"/>
</g>
</svg>